<?xml version="1.0" encoding="utf-8"?>
<!-- Generator: Adobe Illustrator 27.7.0, SVG Export Plug-In . SVG Version: 6.00 Build 0)  -->
<svg version="1.1" id="Calque_1" xmlns="http://www.w3.org/2000/svg" xmlns:xlink="http://www.w3.org/1999/xlink" x="0px" y="0px"
	 width="100px" height="100px" viewBox="0 0 100 100" style="enable-background:new 0 0 100 100;" xml:space="preserve">
<style type="text/css">
	.st0{fill:#A83B3B;}
	.st1{fill:#D84747;}
	.st2{fill:#FFFFFF;}
</style>
<path class="st0" d="M95,84c-19.8-2.8-20.9-3.6-21-8L95,84z"/>
<path class="st1" d="M73.9,75.2l-2.6-1c-4.3-2.1-11.3,0.2-14.7,1.6c-2.4,1-4.8,1.7-7.4,2c-10.8,1.6-10.9-4.4-19.1-15.1
	c-9.3-12.2-3.6-17.1-15-19.4c-6.6-1.3-9.4-8.3-10.5-13.8c-0.8-4-1-3.9,0.7-0.6c1.6,3.2,4.9,6.4,11.8,6.6c14,0.2,27.3-6.2,33.6,3.4
	c6.4,9.6,12,17.8,11.6,25c-0.5,7.2,6.7,0.9,10.2,6.6c1.2,2,1.4,3.3,1.4,4.1C73.9,74.9,73.9,75.1,73.9,75.2z"/>
<path class="st0" d="M73.9,74.7v0.5l-2.6-1c-4.3-2-11.3,0.2-14.7,1.6c-2.4,1-4.8,1.7-7.3,2c-10.8,1.6-10.9-4.4-19.1-15.1
	c-9.3-12.1-3.6-17.1-15-19.4c-6.6-1.3-9.4-8.3-10.5-13.8c-0.5-2.3-0.7-3.2-0.5-3c1,3.5,3.1,8.9,7.5,11.4c6.8,3.9,14.5,3.3,16.6,12.4
	c2.1,9.1,8.5,17.1,19.3,17.9c5.3,0.4,12.3-0.7,18-0.5l0,0c1.3,0,2.9-0.1,4.3,0.5c0,0,0,0,0,0c1,0.4,2,1,2.7,2.3
	c0.8,1.4,1.2,2.4,1.3,3.2C73.8,74.2,73.9,74.5,73.9,74.7z"/>
<path class="st2" d="M85.6,76.6c-2.5-0.3-7.6-0.6-9.5-2c-0.4-0.2-0.7-0.6-0.8-1.1l-0.1-0.4c-0.1-0.5-0.2-1-0.4-1.5
	c-0.3-0.7-0.7-1.4-1.1-2.1c-1.5-2.2-3.5-2.3-6-2.2c-2.1,0.1-4.1,0-4.7-2.5c-0.3-1.2-0.1-2.2-0.2-3.3c-0.5-7.3-7.5-17-11.6-23.2
	c-3.5-5.2-9.4-5.3-15-4.7c-6.4,0.7-12.8,2.1-19.3,1.9c-3.3-0.2-6.2-2-8.5-4.3c1.6,1.5,3.3,2.8,5.3,3.5c1.5,0.6,3.1,0.7,4.7,0.7
	c2.7-0.1,5.4-0.4,8-0.8c4.8-0.7,9.6-1.8,14.5-1.8c4.2,0,8,1.2,10.6,4.7c1.7,2.4,3.7,5.2,5.4,7.6c2.5,3.6,4.9,7.3,6.4,11.4
	c0.6,1.7,1,3.5,1.1,5.4c0,0.9-0.1,1.8,0.1,2.7c0.2,0.9,0.7,1.2,1.6,1.4c1,0.1,2.1,0.1,3.2,0.2c2.4,0.2,4.1,1.3,5.2,3.4
	c0.6,1.1,1,2.3,1.1,3.6l0,0.2l0,0.1c0,0.4,0.3,0.7,0.6,0.9c0.8,0.6,1.9,0.9,2.9,1.2C81.4,76,83.5,76.3,85.6,76.6z"/>
<path class="st2" d="M3.7,23.3c0.7,7,3.2,17.8,11,19.9c0.4,0.1,1.1,0.2,1.5,0.3c1.1,0.2,2.1,0.5,3.1,0.8c1.6,0.6,3.1,1.6,4,3
	c0.6,0.9,1,1.9,1.4,3c0.7,2,1.3,3.9,2.2,5.7c1.3,2.8,3,5.4,4.9,7.7c1.3,1.7,2.4,3.4,3.6,5.1c1.7,2.5,3.2,5.3,5.6,7.3
	c2.4,2.1,5.7,2.2,8.7,1.7c2-0.3,4-0.8,6-1.5c0.5-0.2,1-0.4,1.4-0.6c3.3-1.4,6.9-2.6,10.5-2.3c1,0.1,2,0.4,3,0.8
	c-0.5-0.2-1-0.4-1.5-0.5c-4.1-1-8.3,0.5-12,2.1c-0.5,0.2-1,0.4-1.4,0.6c-3.5,1.3-8.5,2.5-12.2,1.4c-3.1-0.9-5.1-3.6-6.9-6.1
	c-1.8-2.5-3.5-5.1-5.5-7.5c-1.3-1.6-2.6-3.3-3.7-5c-1.1-1.8-2.1-3.7-2.9-5.6c-0.8-1.8-1.3-3.9-2.4-5.5c-0.8-1.2-2-1.9-3.3-2.4
	c-1.2-0.4-2.4-0.7-3.6-1C6,42.9,3.5,31.3,3.7,23.3z"/>
<path class="st0" d="M45.3,57.9c-6.3-1.4-10.1-6.6-11.5-12.5c-0.2-0.8-0.4-1.5-0.7-2.1c-0.2-0.4-0.4-0.8-0.7-1.1
	c1,0.4,2.6,1.3,3.7,3.7c0.1,0.3,0.3,0.6,0.4,0.9c1.2,3.7,2.7,7.3,6.4,9.2C43.8,56.4,46.1,58,45.3,57.9z"/>
</svg>
